<?xml version="1.0" standalone="no"?>
<!DOCTYPE svg PUBLIC "-//W3C//DTD SVG 20010904//EN"
 "http://www.w3.org/TR/2001/REC-SVG-20010904/DTD/svg10.dtd">
<svg version="1.0" xmlns="http://www.w3.org/2000/svg"
 width="1280.000000pt" height="1280.000000pt" viewBox="0 0 1280.000000 1280.000000"
 preserveAspectRatio="xMidYMid meet">
<g transform="translate(0.000000,1280.000000) scale(0.100000,-0.100000)"
fill="#000000" stroke="none">
<path d="M8500 10059 c-68 -14 -125 -34 -200 -72 l-104 -52 -161 1 c-102 0
-220 9 -325 22 -186 25 -377 28 -461 8 -78 -18 -130 -51 -231 -145 -115 -106
-147 -122 -223 -112 -33 5 -70 5 -85 1 -50 -13 -62 -80 -34 -182 l17 -59 -30
-32 c-48 -51 -66 -95 -71 -178 -5 -93 15 -170 61 -230 49 -65 95 -84 202 -85
63 -1 102 -6 130 -19 54 -24 128 -24 155 0 34 31 25 42 -40 48 -92 8 -141 51
-126 111 16 66 82 72 187 18 56 -29 59 -30 59 -10 0 11 -17 37 -38 58 -36 36
-51 43 -157 66 -38 8 -40 11 -41 47 -1 40 -23 72 -54 80 -25 6 -35 -6 -54 -71
-15 -53 -15 -54 9 -76 14 -13 25 -26 25 -30 0 -13 -91 -5 -153 14 -86 27 -112
48 -103 84 11 44 103 128 185 169 61 31 84 37 136 37 43 0 66 5 75 15 18 22
-11 30 -62 17 -34 -9 -54 -7 -127 14 -82 24 -111 42 -111 71 0 9 17 13 59 13
40 0 75 7 112 24 30 13 80 27 111 31 53 6 58 5 73 -19 14 -20 16 -42 12 -103
-2 -43 -8 -88 -12 -100 -6 -19 -4 -23 12 -23 26 0 46 23 85 101 l33 64 90 -3
c50 -1 113 -9 141 -17 54 -15 104 -48 104 -68 0 -7 -18 -34 -40 -61 -42 -51
-59 -91 -44 -106 19 -19 133 -40 216 -40 86 0 88 1 88 23 0 30 -27 55 -72 67
-19 6 -43 16 -53 24 -19 14 -18 15 17 30 48 21 137 21 166 0 27 -19 28 -38 2
-71 -24 -30 -26 -66 -5 -83 22 -18 19 -27 -15 -39 -66 -22 -16 -81 69 -81 49
0 45 7 142 -241 39 -101 77 -190 82 -197 9 -11 28 -12 84 -7 l73 7 15 -36 c35
-83 4 -164 -87 -223 -35 -24 -52 -28 -112 -28 -39 0 -83 4 -98 9 -28 8 -28 7
-28 -34 0 -30 12 -66 40 -121 47 -92 50 -123 14 -160 -36 -38 -45 -88 -33
-199 14 -142 7 -171 -55 -224 -41 -36 -56 -57 -74 -108 -32 -90 -108 -204
-204 -304 -93 -97 -221 -204 -244 -204 -9 0 -74 -27 -146 -61 -140 -66 -201
-77 -267 -49 -31 12 -37 11 -98 -20 -87 -45 -163 -52 -226 -20 -44 22 -47 22
-86 6 -60 -23 -126 -20 -189 9 -63 29 -75 30 -132 10 -48 -17 -64 -11 -185 60
-60 36 -61 36 -147 30 -104 -7 -109 -5 -199 82 -36 35 -82 71 -102 81 -33 16
-45 34 -113 172 -81 165 -110 264 -99 336 4 31 2 44 -10 54 -9 8 -23 27 -32
43 -20 39 -12 84 32 192 29 70 35 96 35 157 0 84 24 146 104 264 25 38 46 80
46 95 0 78 64 175 159 240 51 35 61 51 61 106 0 36 21 53 154 123 57 30 72 43
81 71 9 28 24 41 81 71 38 21 81 38 97 38 l27 0 0 -113 c0 -168 31 -257 122
-353 65 -69 128 -96 238 -102 85 -5 85 -5 119 -45 19 -22 53 -48 75 -58 74
-34 170 -20 199 28 13 22 31 15 76 -31 24 -25 67 -55 95 -68 45 -20 66 -23
171 -22 100 1 135 5 210 28 205 62 324 169 343 309 l5 42 -71 -67 c-154 -145
-392 -218 -560 -174 -74 20 -111 44 -218 144 -52 47 -101 90 -110 95 -9 5 -37
1 -72 -11 -82 -28 -150 -35 -222 -22 -88 16 -161 51 -219 105 -68 63 -96 129
-95 225 0 93 24 148 118 273 36 49 66 94 66 100 0 6 -19 -7 -42 -29 -49 -46
-204 -178 -248 -210 -16 -12 -47 -24 -69 -28 -25 -4 -55 -20 -83 -44 -24 -20
-117 -72 -209 -116 l-166 -79 -27 -62 c-31 -72 -210 -328 -233 -333 -17 -4
-60 33 -78 68 -7 14 -22 68 -34 121 -43 188 -132 289 -405 459 -115 72 -171
113 -178 130 -11 29 -5 72 30 205 15 57 26 129 26 167 1 57 -2 71 -22 90 -18
19 -33 23 -75 22 -49 -2 -157 -35 -184 -56 -7 -6 -25 -49 -40 -96 -15 -48 -33
-93 -39 -101 -11 -12 -37 9 -161 131 -120 117 -161 151 -218 179 -67 32 -75
34 -180 34 -100 0 -115 -3 -160 -27 -102 -54 -155 -138 -155 -248 0 -114 45
-179 204 -299 112 -85 141 -115 251 -265 49 -66 106 -139 128 -163 39 -42 39
-43 28 -87 -66 -264 148 -618 474 -784 49 -25 65 -40 88 -81 45 -81 136 -189
240 -286 54 -49 97 -97 97 -107 0 -10 -17 -31 -39 -46 -24 -17 -60 -62 -96
-121 -32 -51 -83 -126 -112 -165 -69 -90 -94 -139 -128 -251 -15 -49 -47 -151
-70 -225 -80 -250 -125 -453 -125 -570 0 -36 -4 -70 -8 -76 -4 -6 -27 -15 -51
-19 -185 -31 -311 -137 -419 -351 -50 -99 -65 -165 -60 -269 3 -79 8 -101 36
-158 96 -195 268 -292 954 -541 292 -105 316 -112 466 -130 94 -12 135 -21
175 -42 62 -33 555 -521 655 -649 34 -44 74 -92 87 -107 32 -35 135 -84 222
-106 38 -10 73 -21 80 -25 21 -13 52 -114 63 -206 18 -144 -16 -306 -78 -374
-28 -31 -91 -58 -148 -64 -59 -6 -67 -16 -67 -84 0 -75 63 -137 166 -165 120
-32 205 -13 422 96 88 44 172 82 187 86 32 7 37 -1 47 -78 6 -50 8 -53 41 -60
41 -8 118 3 178 27 64 26 67 48 64 375 -2 286 2 325 34 285 27 -34 81 -156 99
-225 10 -36 17 -99 18 -140 0 -83 -22 -141 -103 -270 -43 -69 -63 -126 -58
-168 2 -20 15 -33 58 -55 50 -26 62 -29 135 -25 118 7 162 33 326 194 75 74
140 134 145 134 5 0 18 -17 29 -38 31 -58 109 -57 169 3 68 67 68 156 5 730
-16 148 -29 306 -29 350 l0 81 85 16 c47 9 112 29 143 44 121 58 219 198 263
374 28 109 23 256 -10 343 -37 95 -105 174 -211 244 -51 34 -104 72 -117 85
-51 47 -72 112 -98 298 -22 163 -33 203 -77 276 -47 77 -50 62 39 181 49 64
61 73 155 121 57 28 137 74 179 101 220 148 415 378 483 570 27 79 29 97 29
216 -1 214 -51 407 -159 615 -76 146 -122 211 -168 236 -21 12 -84 60 -139
105 -148 124 -159 131 -379 253 -111 62 -204 118 -205 123 -2 6 16 18 41 27
72 27 121 69 150 127 29 59 32 96 14 198 -11 65 -10 74 16 160 23 80 28 114
32 264 3 95 1 282 -4 417 -7 198 -6 253 5 284 15 46 59 106 75 106 7 0 25 12
40 27 26 25 37 28 125 33 111 6 154 -5 227 -57 88 -63 121 -165 76 -237 -25
-41 -24 -41 -95 -21 -98 29 -224 -7 -251 -70 -31 -76 -11 -161 55 -226 115
-116 219 -82 275 89 16 48 42 101 62 125 62 78 69 95 69 187 0 97 -19 146 -83
213 -106 111 -272 142 -502 96z m-905 -209 c291 -74 578 -302 709 -561 61
-122 71 -309 22 -415 -31 -67 -50 -84 -94 -84 -50 0 -56 6 -76 70 -10 30 -51
120 -91 200 -71 143 -96 201 -150 354 -32 90 -44 99 -155 111 -46 5 -95 22
-170 57 -189 90 -224 101 -333 103 -99 3 -99 3 -127 36 -25 30 -27 36 -14 50
20 22 126 69 189 85 78 19 201 17 290 -6z m-3549 -75 c57 -17 115 -72 213
-203 76 -101 129 -142 183 -142 71 0 120 55 153 175 31 107 78 168 119 152 26
-10 18 -55 -21 -125 l-38 -67 3 -218 c1 -129 -2 -233 -8 -256 -12 -46 -71
-103 -126 -122 -22 -8 -73 -13 -114 -13 -124 1 -169 32 -343 240 -42 50 -126
138 -187 195 -62 57 -123 122 -136 145 -47 80 -24 168 54 212 75 42 166 52
248 27z m807 -626 c139 -71 302 -220 353 -324 23 -47 29 -75 32 -147 4 -87 4
-91 -33 -166 -63 -126 -235 -281 -375 -337 -68 -27 -144 -24 -207 9 -179 91
-372 434 -335 596 8 37 7 37 124 60 133 26 260 121 338 254 25 41 49 76 53 76
4 0 27 -10 50 -21z m1999 -530 l33 -31 -30 7 c-34 7 -67 33 -59 46 9 15 23 10
56 -22z m-1537 -1432 c58 -10 71 -16 73 -33 4 -27 -43 -158 -130 -362 -39 -92
-99 -237 -134 -322 -34 -85 -68 -156 -74 -158 -6 -2 -94 6 -196 19 -142 17
-187 26 -193 38 -10 19 9 99 32 135 21 31 66 34 143 11 44 -13 50 -13 67 3 49
44 225 478 210 517 -7 19 -28 26 -113 39 -54 8 -76 15 -78 27 -5 25 41 82 78
96 40 15 200 10 315 -10z m-345 -207 c17 -11 10 -40 -53 -236 l-42 -129 -37
-3 c-20 -2 -51 1 -70 6 -30 8 -33 12 -32 43 1 19 16 80 33 137 41 133 80 173
181 191 3 0 12 -3 20 -9z m692 -100 c341 -58 475 -89 1235 -284 67 -17 127
-36 133 -42 15 -15 -5 -107 -37 -174 -32 -65 -110 -146 -175 -180 l-46 -24
-278 68 c-471 115 -932 215 -1196 260 -34 6 -38 10 -38 36 0 34 44 178 72 235
11 22 34 61 51 87 39 59 41 59 279 18z m2395 -87 c160 -63 256 -206 283 -420
31 -244 -67 -394 -300 -459 -94 -27 -355 -27 -422 -1 -27 10 -48 22 -48 27 0
4 20 33 45 63 53 64 65 98 65 187 0 116 -39 221 -136 372 -60 94 -84 142 -75
156 15 25 169 80 266 95 17 3 84 4 150 3 93 -2 132 -8 172 -23z m-851 -48
c120 -35 260 -159 321 -282 34 -69 38 -85 41 -172 3 -81 0 -105 -18 -154 -56
-149 -288 -281 -495 -281 -70 -1 -87 3 -132 28 -53 29 -97 80 -108 126 -8 33
23 73 127 163 147 128 201 214 202 321 1 95 -35 139 -131 160 -52 12 -52 25 2
63 60 42 117 50 191 28z m-2165 -745 c326 -26 581 -64 1109 -170 1341 -267
2084 -497 2423 -752 123 -91 183 -193 194 -328 10 -117 -49 -278 -145 -395
-40 -48 -58 -61 -120 -86 -84 -33 -122 -36 -144 -11 -25 28 -30 59 -23 134 9
83 23 94 68 51 47 -44 79 -63 104 -63 20 0 23 5 23 37 0 93 -67 162 -245 251
-295 147 -775 301 -1550 497 -945 239 -1575 348 -2086 362 -251 7 -334 -5
-416 -60 -99 -67 -51 -94 152 -88 72 2 187 4 257 5 148 1 133 10 258 -144 77
-95 143 -158 294 -280 110 -89 196 -170 196 -185 0 -24 -118 12 -539 167 -457
168 -566 223 -653 332 -60 75 -79 132 -79 238 0 147 51 262 160 359 66 59 177
117 247 128 72 12 359 13 515 1z m3223 -2102 c5 -14 6 -42 2 -63 -9 -46 -87
-127 -161 -167 -49 -26 -344 -118 -379 -118 -20 0 -59 80 -54 112 2 17 39 37
178 101 226 102 382 167 395 163 6 -1 14 -14 19 -28z m-1157 -153 c63 -64 113
-121 111 -127 -3 -7 -18 -15 -34 -20 -50 -12 -354 -49 -364 -43 -11 7 -48 121
-52 159 -3 25 4 34 41 60 69 46 144 86 165 86 11 0 67 -48 133 -115z m-387
-699 c0 -18 -42 -45 -81 -53 -41 -8 -36 13 11 45 37 25 70 29 70 8z m1010
-123 c0 -19 -41 -73 -55 -73 -23 0 -18 28 10 55 24 24 45 33 45 18z"/>
<path d="M7524 9145 c-9 -13 -18 -42 -21 -63 -4 -32 -1 -44 16 -61 29 -29 55
-26 85 10 30 36 35 98 10 123 -24 25 -71 20 -90 -9z"/>
<path d="M7321 8961 c-29 -10 -63 -28 -74 -40 l-22 -21 20 -37 c25 -45 80 -86
148 -110 40 -14 83 -18 187 -18 133 0 137 1 203 33 45 23 75 45 92 70 36 53
18 65 -46 30 -27 -16 -55 -28 -62 -28 -6 1 -25 19 -40 41 -45 65 -117 93 -247
97 -82 2 -117 -2 -159 -17z"/>
</g>
</svg>
